<?xml version="1.0" encoding="UTF-8" standalone="no"?>
<!DOCTYPE svg PUBLIC "-//W3C//DTD SVG 1.1//EN" "http://www.w3.org/Graphics/SVG/1.1/DTD/svg11.dtd">
<svg width="300px" height="100%" viewBox="0 0 179 34" version="1.1" xmlns="http://www.w3.org/2000/svg" xmlns:xlink="http://www.w3.org/1999/xlink" xml:space="preserve" xmlns:serif="http://www.serif.com/" style="fill-rule:evenodd;clip-rule:evenodd;stroke-linejoin:round;stroke-miterlimit:2;">
    <g id="Layer-1" serif:id="Layer 1" transform="matrix(1,0,0,1,106.465,-249.815)">
        <rect id="rect832" x="0.845" y="265.985" width="65.265" height="1.5" style="fill:rgb(28,187,134);"/>
        <rect id="rect832-9" x="-100.796" y="265.985" width="65.265" height="1.5" style="fill:rgb(28,187,134);"/>
    </g>
    <g transform="matrix(0.0207733,0,0,0.0207733,89.122,17.6693)">
        <g transform="matrix(1,0,0,1,-456,-395)">
            <path d="M615.186,0C657.383,0 696.375,22.512 717.473,59.055C760.495,133.572 834.052,260.976 877.074,335.493C898.173,372.036 898.173,417.06 877.074,453.603C834.052,528.12 760.495,655.524 717.473,730.041C696.375,766.585 657.383,789.096 615.186,789.096L295.983,789.096C253.787,789.096 214.795,766.585 193.697,730.041C150.674,655.524 77.118,528.12 34.095,453.603C12.997,417.06 12.997,372.036 34.095,335.493C77.118,260.976 150.674,133.572 193.697,59.055C214.795,22.512 253.787,0 295.983,0L615.186,0ZM528.109,676.64C528.109,686.038 524.376,695.05 517.731,701.695C511.086,708.34 502.073,712.073 492.676,712.073L418.494,712.073C409.097,712.073 400.084,708.34 393.439,701.695C386.794,695.05 383.061,686.038 383.061,676.64L383.061,480.662C383.061,477.056 381.414,473.648 378.588,471.408C375.763,469.167 372.069,468.34 368.558,469.162C344.138,474.878 293.084,486.828 248.278,497.315C234.351,500.574 219.83,495.141 211.463,483.539C203.097,471.937 202.527,456.443 210.018,444.258C269.716,347.148 374.109,177.333 425.399,93.9C431.846,83.412 443.275,77.023 455.585,77.023C467.895,77.023 479.323,83.412 485.77,93.9C537.061,177.333 641.454,347.148 701.152,444.258C708.643,456.443 708.073,471.937 699.706,483.539C691.34,495.141 676.819,500.574 662.891,497.315C618.086,486.828 567.032,474.878 542.612,469.162C539.101,468.34 535.407,469.167 532.581,471.408C529.756,473.648 528.109,477.056 528.109,480.662L528.109,676.64Z" style="fill:rgb(0,187,134);"/>
        </g>
    </g>
</svg>
