<?xml version="1.0" encoding="UTF-8" standalone="no"?>
<!DOCTYPE svg PUBLIC "-//W3C//DTD SVG 1.1//EN" "http://www.w3.org/Graphics/SVG/1.1/DTD/svg11.dtd">
<svg width="100%" height="100%" viewBox="0 0 551 101" version="1.1" xmlns="http://www.w3.org/2000/svg" xmlns:xlink="http://www.w3.org/1999/xlink" xml:space="preserve" xmlns:serif="http://www.serif.com/" style="fill-rule:evenodd;clip-rule:evenodd;stroke-linejoin:round;stroke-miterlimit:2;">
    <g transform="matrix(0.83865,0,0,0.83865,16.8384,13.509)">
        <g transform="matrix(30.1385,0,0,30.1385,116.968,88.994)">
            <path d="M0.407,-0.267C0.407,-0.363 0.372,-0.411 0.301,-0.411C0.286,-0.411 0.271,-0.409 0.256,-0.405C0.241,-0.401 0.228,-0.396 0.219,-0.39L0.219,-0.119C0.226,-0.118 0.236,-0.117 0.247,-0.116C0.258,-0.115 0.271,-0.114 0.284,-0.114C0.325,-0.114 0.355,-0.128 0.376,-0.156C0.397,-0.184 0.407,-0.221 0.407,-0.267ZM0.559,-0.263C0.559,-0.221 0.553,-0.183 0.541,-0.149C0.528,-0.115 0.51,-0.086 0.487,-0.062C0.464,-0.038 0.435,-0.02 0.401,-0.007C0.367,0.007 0.328,0.013 0.285,0.013C0.267,0.013 0.248,0.012 0.229,0.011C0.209,0.009 0.19,0.007 0.171,0.004C0.152,0.001 0.133,-0.002 0.116,-0.006C0.099,-0.009 0.083,-0.013 0.07,-0.017L0.07,-0.752L0.219,-0.776L0.219,-0.514C0.236,-0.521 0.253,-0.527 0.271,-0.531C0.289,-0.535 0.308,-0.537 0.329,-0.537C0.366,-0.537 0.399,-0.531 0.428,-0.518C0.457,-0.505 0.481,-0.486 0.5,-0.462C0.519,-0.438 0.534,-0.409 0.544,-0.376C0.554,-0.342 0.559,-0.304 0.559,-0.263Z" style="fill:rgb(9,25,38);fill-rule:nonzero;"/>
        </g>
        <g transform="matrix(30.1385,0,0,30.1385,134.75,88.994)">
            <path d="M0.537,-0.526C0.507,-0.425 0.476,-0.33 0.443,-0.241C0.41,-0.152 0.375,-0.066 0.336,0.017C0.322,0.047 0.308,0.073 0.294,0.094C0.28,0.115 0.265,0.132 0.248,0.146C0.231,0.159 0.213,0.169 0.192,0.176C0.171,0.182 0.146,0.185 0.118,0.185C0.095,0.185 0.073,0.183 0.054,0.179C0.034,0.174 0.018,0.169 0.005,0.164L0.031,0.045C0.046,0.05 0.06,0.054 0.072,0.056C0.084,0.058 0.097,0.059 0.11,0.059C0.137,0.059 0.157,0.052 0.172,0.038C0.186,0.023 0.198,0.003 0.208,-0.022C0.174,-0.089 0.14,-0.164 0.106,-0.247C0.072,-0.329 0.04,-0.423 0.01,-0.526L0.168,-0.526C0.175,-0.5 0.183,-0.472 0.192,-0.442C0.201,-0.411 0.21,-0.381 0.22,-0.35C0.23,-0.319 0.24,-0.288 0.251,-0.259C0.261,-0.23 0.271,-0.203 0.28,-0.179C0.289,-0.203 0.298,-0.23 0.307,-0.259C0.316,-0.288 0.326,-0.319 0.335,-0.35C0.343,-0.381 0.352,-0.411 0.361,-0.442C0.369,-0.472 0.376,-0.5 0.383,-0.526L0.537,-0.526Z" style="fill:rgb(9,25,38);fill-rule:nonzero;"/>
        </g>
        <g transform="matrix(30.1385,0,0,30.1385,159.609,88.994)">
            <path d="M0.066,-0L0.066,-0.716L0.203,-0.716L0.203,-0.458C0.245,-0.506 0.296,-0.53 0.354,-0.53C0.417,-0.53 0.469,-0.507 0.51,-0.462C0.552,-0.416 0.572,-0.35 0.572,-0.265C0.572,-0.176 0.551,-0.108 0.509,-0.06C0.467,-0.012 0.416,0.012 0.355,0.012C0.326,0.012 0.297,0.004 0.268,-0.01C0.239,-0.025 0.214,-0.047 0.193,-0.076L0.193,-0L0.066,-0ZM0.202,-0.271C0.202,-0.217 0.211,-0.177 0.228,-0.151C0.251,-0.115 0.283,-0.097 0.322,-0.097C0.353,-0.097 0.378,-0.11 0.4,-0.135C0.421,-0.161 0.432,-0.202 0.432,-0.258C0.432,-0.317 0.421,-0.36 0.399,-0.386C0.378,-0.412 0.35,-0.425 0.317,-0.425C0.284,-0.425 0.257,-0.413 0.235,-0.387C0.213,-0.361 0.202,-0.323 0.202,-0.271Z" style="fill:rgb(9,25,38);fill-rule:nonzero;"/>
        </g>
        <g transform="matrix(30.1385,0,0,30.1385,178.019,88.994)">
            <path d="M0.174,-0.36L0.05,-0.383C0.064,-0.433 0.088,-0.47 0.122,-0.494C0.156,-0.518 0.207,-0.53 0.274,-0.53C0.336,-0.53 0.381,-0.523 0.411,-0.509C0.441,-0.494 0.462,-0.476 0.474,-0.453C0.487,-0.431 0.493,-0.39 0.493,-0.331L0.491,-0.17C0.491,-0.125 0.493,-0.091 0.498,-0.07C0.502,-0.048 0.51,-0.025 0.522,-0L0.387,-0C0.383,-0.009 0.379,-0.023 0.374,-0.041C0.371,-0.049 0.37,-0.054 0.369,-0.057C0.345,-0.034 0.32,-0.017 0.293,-0.005C0.267,0.006 0.238,0.012 0.208,0.012C0.155,0.012 0.113,-0.003 0.082,-0.032C0.051,-0.061 0.036,-0.097 0.036,-0.142C0.036,-0.171 0.043,-0.197 0.057,-0.22C0.071,-0.243 0.09,-0.26 0.115,-0.273C0.141,-0.285 0.177,-0.296 0.225,-0.305C0.289,-0.317 0.333,-0.328 0.358,-0.338L0.358,-0.352C0.358,-0.378 0.351,-0.397 0.338,-0.408C0.325,-0.42 0.301,-0.425 0.265,-0.425C0.24,-0.425 0.221,-0.42 0.208,-0.411C0.194,-0.401 0.183,-0.384 0.174,-0.36ZM0.358,-0.249C0.34,-0.243 0.313,-0.236 0.274,-0.228C0.236,-0.22 0.211,-0.212 0.2,-0.204C0.182,-0.191 0.173,-0.175 0.173,-0.156C0.173,-0.137 0.18,-0.12 0.194,-0.106C0.209,-0.092 0.227,-0.085 0.249,-0.085C0.274,-0.085 0.297,-0.093 0.32,-0.109C0.336,-0.122 0.347,-0.137 0.353,-0.155C0.356,-0.167 0.358,-0.189 0.358,-0.222L0.358,-0.249Z" style="fill:rgb(9,25,38);fill-rule:nonzero;"/>
        </g>
        <g transform="matrix(30.1385,0,0,30.1385,194.781,88.994)">
            <path d="M0.413,-0L0.413,-0.078C0.394,-0.05 0.369,-0.028 0.339,-0.012C0.308,0.004 0.275,0.012 0.241,0.012C0.206,0.012 0.175,0.004 0.147,-0.011C0.12,-0.027 0.1,-0.048 0.087,-0.076C0.075,-0.103 0.069,-0.142 0.069,-0.19L0.069,-0.519L0.206,-0.519L0.206,-0.28C0.206,-0.207 0.209,-0.163 0.214,-0.146C0.219,-0.13 0.228,-0.117 0.241,-0.107C0.255,-0.098 0.271,-0.093 0.292,-0.093C0.315,-0.093 0.336,-0.099 0.355,-0.112C0.374,-0.125 0.386,-0.141 0.393,-0.16C0.4,-0.179 0.403,-0.226 0.403,-0.3L0.403,-0.519L0.541,-0.519L0.541,-0L0.413,-0Z" style="fill:rgb(9,25,38);fill-rule:nonzero;"/>
        </g>
        <g transform="matrix(30.1385,0,0,30.1385,213.19,88.994)">
            <path d="M0.062,-0.519L0.188,-0.519L0.188,-0.448C0.233,-0.503 0.287,-0.53 0.35,-0.53C0.383,-0.53 0.412,-0.523 0.436,-0.51C0.46,-0.496 0.48,-0.475 0.496,-0.448C0.519,-0.475 0.543,-0.496 0.57,-0.51C0.596,-0.523 0.624,-0.53 0.654,-0.53C0.692,-0.53 0.725,-0.523 0.751,-0.507C0.777,-0.492 0.797,-0.469 0.81,-0.439C0.819,-0.417 0.824,-0.381 0.824,-0.332L0.824,-0L0.687,-0L0.687,-0.296C0.687,-0.348 0.682,-0.381 0.673,-0.396C0.66,-0.416 0.641,-0.425 0.614,-0.425C0.595,-0.425 0.577,-0.419 0.56,-0.408C0.543,-0.396 0.531,-0.379 0.523,-0.356C0.516,-0.334 0.512,-0.298 0.512,-0.249L0.512,-0L0.375,-0L0.375,-0.284C0.375,-0.335 0.373,-0.367 0.368,-0.382C0.363,-0.396 0.355,-0.407 0.345,-0.415C0.335,-0.422 0.321,-0.425 0.303,-0.425C0.282,-0.425 0.263,-0.42 0.246,-0.408C0.229,-0.397 0.217,-0.38 0.21,-0.359C0.202,-0.337 0.199,-0.302 0.199,-0.252L0.199,-0L0.062,-0L0.062,-0.519Z" style="fill:rgb(9,25,38);fill-rule:nonzero;"/>
        </g>
        <g transform="matrix(30.1385,0,0,30.1385,239.988,88.994)">
            <path d="M0.203,-0L0.066,-0L0.066,-0.519L0.193,-0.519L0.193,-0.445C0.215,-0.48 0.235,-0.503 0.252,-0.514C0.27,-0.525 0.289,-0.53 0.312,-0.53C0.343,-0.53 0.373,-0.522 0.402,-0.504L0.359,-0.385C0.336,-0.4 0.315,-0.407 0.295,-0.407C0.276,-0.407 0.259,-0.402 0.246,-0.391C0.233,-0.381 0.222,-0.362 0.215,-0.334C0.207,-0.306 0.203,-0.248 0.203,-0.16L0.203,-0Z" style="fill:rgb(9,25,38);fill-rule:nonzero;"/>
        </g>
        <g transform="matrix(30.1385,0,0,30.1385,251.717,88.994)">
            <path d="M0.04,-0.267C0.04,-0.312 0.051,-0.356 0.074,-0.399C0.096,-0.442 0.128,-0.474 0.169,-0.497C0.21,-0.519 0.256,-0.53 0.307,-0.53C0.386,-0.53 0.45,-0.505 0.5,-0.454C0.55,-0.403 0.575,-0.339 0.575,-0.261C0.575,-0.182 0.55,-0.117 0.499,-0.066C0.449,-0.014 0.385,0.012 0.308,0.012C0.261,0.012 0.215,0.001 0.172,-0.021C0.129,-0.042 0.096,-0.073 0.074,-0.115C0.051,-0.156 0.04,-0.207 0.04,-0.267ZM0.181,-0.259C0.181,-0.208 0.193,-0.168 0.217,-0.141C0.242,-0.114 0.272,-0.1 0.308,-0.1C0.343,-0.1 0.373,-0.114 0.398,-0.141C0.422,-0.168 0.434,-0.208 0.434,-0.26C0.434,-0.311 0.422,-0.35 0.398,-0.377C0.373,-0.405 0.343,-0.418 0.308,-0.418C0.272,-0.418 0.242,-0.405 0.217,-0.377C0.193,-0.35 0.181,-0.311 0.181,-0.259Z" style="fill:rgb(9,25,38);fill-rule:nonzero;"/>
        </g>
        <g transform="matrix(30.1385,0,0,30.1385,270.127,88.994)">
            <path d="M0.524,-0.365L0.389,-0.341C0.384,-0.368 0.374,-0.388 0.358,-0.402C0.342,-0.416 0.321,-0.422 0.295,-0.422C0.261,-0.422 0.233,-0.411 0.213,-0.387C0.193,-0.363 0.183,-0.324 0.183,-0.269C0.183,-0.207 0.193,-0.164 0.214,-0.138C0.234,-0.113 0.262,-0.1 0.297,-0.1C0.323,-0.1 0.344,-0.108 0.361,-0.122C0.377,-0.137 0.389,-0.163 0.396,-0.199L0.531,-0.176C0.517,-0.114 0.49,-0.067 0.45,-0.036C0.41,-0.004 0.357,0.012 0.291,0.012C0.215,0.012 0.154,-0.012 0.109,-0.06C0.064,-0.108 0.042,-0.174 0.042,-0.259C0.042,-0.344 0.064,-0.411 0.109,-0.459C0.155,-0.506 0.216,-0.53 0.293,-0.53C0.356,-0.53 0.406,-0.517 0.444,-0.49C0.481,-0.462 0.508,-0.421 0.524,-0.365Z" style="fill:rgb(9,25,38);fill-rule:nonzero;"/>
        </g>
        <g transform="matrix(30.1385,0,0,30.1385,286.889,88.994)">
            <path d="M0.067,-0L0.067,-0.716L0.204,-0.716L0.204,-0.336L0.365,-0.519L0.534,-0.519L0.356,-0.329L0.546,-0L0.398,-0L0.268,-0.233L0.204,-0.166L0.204,-0L0.067,-0Z" style="fill:rgb(9,25,38);fill-rule:nonzero;"/>
        </g>
        <g transform="matrix(30.1385,0,0,30.1385,303.65,88.994)">
            <rect x="0.072" y="-0.137" width="0.137" height="0.137" style="fill:rgb(9,25,38);fill-rule:nonzero;"/>
        </g>
        <g transform="matrix(30.1385,0,0,30.1385,312.024,88.994)">
            <path d="M0.524,-0.365L0.389,-0.341C0.384,-0.368 0.374,-0.388 0.358,-0.402C0.342,-0.416 0.321,-0.422 0.295,-0.422C0.261,-0.422 0.233,-0.411 0.213,-0.387C0.193,-0.363 0.183,-0.324 0.183,-0.269C0.183,-0.207 0.193,-0.164 0.214,-0.138C0.234,-0.113 0.262,-0.1 0.297,-0.1C0.323,-0.1 0.344,-0.108 0.361,-0.122C0.377,-0.137 0.389,-0.163 0.396,-0.199L0.531,-0.176C0.517,-0.114 0.49,-0.067 0.45,-0.036C0.41,-0.004 0.357,0.012 0.291,0.012C0.215,0.012 0.154,-0.012 0.109,-0.06C0.064,-0.108 0.042,-0.174 0.042,-0.259C0.042,-0.344 0.064,-0.411 0.109,-0.459C0.155,-0.506 0.216,-0.53 0.293,-0.53C0.356,-0.53 0.406,-0.517 0.444,-0.49C0.481,-0.462 0.508,-0.421 0.524,-0.365Z" style="fill:rgb(9,25,38);fill-rule:nonzero;"/>
        </g>
        <g transform="matrix(30.1385,0,0,30.1385,328.785,88.994)">
            <path d="M0.04,-0.267C0.04,-0.312 0.051,-0.356 0.074,-0.399C0.096,-0.442 0.128,-0.474 0.169,-0.497C0.21,-0.519 0.256,-0.53 0.307,-0.53C0.386,-0.53 0.45,-0.505 0.5,-0.454C0.55,-0.403 0.575,-0.339 0.575,-0.261C0.575,-0.182 0.55,-0.117 0.499,-0.066C0.449,-0.014 0.385,0.012 0.308,0.012C0.261,0.012 0.215,0.001 0.172,-0.021C0.129,-0.042 0.096,-0.073 0.074,-0.115C0.051,-0.156 0.04,-0.207 0.04,-0.267ZM0.181,-0.259C0.181,-0.208 0.193,-0.168 0.217,-0.141C0.242,-0.114 0.272,-0.1 0.308,-0.1C0.343,-0.1 0.373,-0.114 0.398,-0.141C0.422,-0.168 0.434,-0.208 0.434,-0.26C0.434,-0.311 0.422,-0.35 0.398,-0.377C0.373,-0.405 0.343,-0.418 0.308,-0.418C0.272,-0.418 0.242,-0.405 0.217,-0.377C0.193,-0.35 0.181,-0.311 0.181,-0.259Z" style="fill:rgb(9,25,38);fill-rule:nonzero;"/>
        </g>
        <g transform="matrix(30.1385,0,0,30.1385,347.195,88.994)">
            <path d="M0.062,-0.519L0.188,-0.519L0.188,-0.448C0.233,-0.503 0.287,-0.53 0.35,-0.53C0.383,-0.53 0.412,-0.523 0.436,-0.51C0.46,-0.496 0.48,-0.475 0.496,-0.448C0.519,-0.475 0.543,-0.496 0.57,-0.51C0.596,-0.523 0.624,-0.53 0.654,-0.53C0.692,-0.53 0.725,-0.523 0.751,-0.507C0.777,-0.492 0.797,-0.469 0.81,-0.439C0.819,-0.417 0.824,-0.381 0.824,-0.332L0.824,-0L0.687,-0L0.687,-0.296C0.687,-0.348 0.682,-0.381 0.673,-0.396C0.66,-0.416 0.641,-0.425 0.614,-0.425C0.595,-0.425 0.577,-0.419 0.56,-0.408C0.543,-0.396 0.531,-0.379 0.523,-0.356C0.516,-0.334 0.512,-0.298 0.512,-0.249L0.512,-0L0.375,-0L0.375,-0.284C0.375,-0.335 0.373,-0.367 0.368,-0.382C0.363,-0.396 0.355,-0.407 0.345,-0.415C0.335,-0.422 0.321,-0.425 0.303,-0.425C0.282,-0.425 0.263,-0.42 0.246,-0.408C0.229,-0.397 0.217,-0.38 0.21,-0.359C0.202,-0.337 0.199,-0.302 0.199,-0.252L0.199,-0L0.062,-0L0.062,-0.519Z" style="fill:rgb(9,25,38);fill-rule:nonzero;"/>
        </g>
    </g>
    <g transform="matrix(2.08605,0,0,2.08605,-132.328,-128.747)">
        <g transform="matrix(30.1385,0,0,30.1385,116.968,88.994)">
            <path d="M0.283,-0.701C0.387,-0.701 0.467,-0.683 0.522,-0.646C0.577,-0.608 0.605,-0.551 0.605,-0.473C0.605,-0.424 0.594,-0.385 0.572,-0.355C0.549,-0.324 0.517,-0.3 0.475,-0.283C0.489,-0.266 0.504,-0.246 0.519,-0.224C0.534,-0.201 0.55,-0.178 0.565,-0.154C0.58,-0.129 0.594,-0.104 0.608,-0.078C0.622,-0.051 0.635,-0.025 0.647,-0L0.472,-0C0.459,-0.023 0.447,-0.046 0.434,-0.069C0.421,-0.092 0.407,-0.115 0.394,-0.137C0.38,-0.159 0.366,-0.18 0.353,-0.2C0.34,-0.219 0.326,-0.237 0.313,-0.253L0.236,-0.253L0.236,-0L0.08,-0L0.08,-0.683C0.114,-0.69 0.149,-0.694 0.186,-0.697C0.222,-0.7 0.254,-0.701 0.283,-0.701ZM0.292,-0.568C0.281,-0.568 0.271,-0.568 0.262,-0.567C0.253,-0.566 0.244,-0.566 0.236,-0.565L0.236,-0.377L0.28,-0.377C0.339,-0.377 0.381,-0.384 0.406,-0.399C0.431,-0.414 0.444,-0.439 0.444,-0.474C0.444,-0.508 0.431,-0.532 0.406,-0.547C0.38,-0.561 0.342,-0.568 0.292,-0.568Z" style="fill:rgb(28,187,134);fill-rule:nonzero;"/>
        </g>
        <g transform="matrix(30.1385,0,0,30.1385,136.317,88.994)">
            <path d="M0.562,-0.264C0.562,-0.223 0.556,-0.185 0.544,-0.151C0.532,-0.116 0.515,-0.087 0.492,-0.063C0.469,-0.038 0.442,-0.019 0.411,-0.006C0.379,0.007 0.343,0.014 0.304,0.014C0.265,0.014 0.23,0.007 0.199,-0.006C0.167,-0.019 0.14,-0.038 0.117,-0.063C0.094,-0.087 0.077,-0.116 0.064,-0.151C0.051,-0.185 0.045,-0.223 0.045,-0.264C0.045,-0.305 0.051,-0.343 0.065,-0.377C0.078,-0.411 0.096,-0.44 0.119,-0.464C0.141,-0.488 0.169,-0.507 0.201,-0.52C0.232,-0.533 0.267,-0.54 0.304,-0.54C0.342,-0.54 0.377,-0.533 0.409,-0.52C0.44,-0.507 0.467,-0.488 0.49,-0.464C0.513,-0.44 0.53,-0.411 0.543,-0.377C0.556,-0.343 0.562,-0.305 0.562,-0.264ZM0.41,-0.264C0.41,-0.31 0.401,-0.346 0.383,-0.373C0.364,-0.399 0.338,-0.412 0.304,-0.412C0.27,-0.412 0.244,-0.399 0.225,-0.373C0.206,-0.346 0.197,-0.31 0.197,-0.264C0.197,-0.218 0.206,-0.182 0.225,-0.155C0.244,-0.128 0.27,-0.114 0.304,-0.114C0.338,-0.114 0.364,-0.128 0.383,-0.155C0.401,-0.182 0.41,-0.218 0.41,-0.264Z" style="fill:rgb(28,187,134);fill-rule:nonzero;"/>
        </g>
        <g transform="matrix(30.1385,0,0,30.1385,154.611,88.994)">
            <path d="M0.045,-0.263C0.045,-0.301 0.051,-0.337 0.064,-0.371C0.076,-0.404 0.094,-0.434 0.117,-0.459C0.14,-0.484 0.169,-0.503 0.202,-0.518C0.235,-0.533 0.273,-0.54 0.316,-0.54C0.344,-0.54 0.37,-0.538 0.393,-0.533C0.416,-0.528 0.439,-0.52 0.461,-0.511L0.43,-0.392C0.416,-0.397 0.401,-0.402 0.384,-0.406C0.367,-0.41 0.349,-0.412 0.328,-0.412C0.284,-0.412 0.251,-0.398 0.23,-0.371C0.208,-0.344 0.197,-0.308 0.197,-0.263C0.197,-0.216 0.207,-0.179 0.228,-0.153C0.248,-0.127 0.283,-0.114 0.334,-0.114C0.352,-0.114 0.371,-0.116 0.392,-0.119C0.413,-0.122 0.432,-0.128 0.449,-0.135L0.47,-0.013C0.453,-0.006 0.431,0.001 0.405,0.006C0.379,0.011 0.35,0.014 0.319,0.014C0.271,0.014 0.23,0.007 0.195,-0.008C0.16,-0.022 0.132,-0.041 0.11,-0.066C0.087,-0.091 0.071,-0.12 0.061,-0.154C0.05,-0.187 0.045,-0.224 0.045,-0.263Z" style="fill:rgb(28,187,134);fill-rule:nonzero;"/>
        </g>
        <g transform="matrix(30.1385,0,0,30.1385,169.68,88.994)">
            <path d="M0.219,-0.336C0.234,-0.352 0.249,-0.369 0.265,-0.386C0.28,-0.403 0.295,-0.421 0.31,-0.438C0.325,-0.455 0.339,-0.471 0.352,-0.486C0.365,-0.501 0.376,-0.515 0.385,-0.526L0.562,-0.526C0.527,-0.485 0.492,-0.447 0.459,-0.41C0.425,-0.373 0.388,-0.334 0.348,-0.295C0.368,-0.277 0.389,-0.256 0.41,-0.231C0.431,-0.206 0.452,-0.18 0.472,-0.153C0.492,-0.126 0.51,-0.1 0.527,-0.073C0.544,-0.046 0.558,-0.022 0.569,-0L0.398,-0C0.387,-0.017 0.375,-0.037 0.362,-0.058C0.348,-0.079 0.333,-0.099 0.318,-0.121C0.303,-0.141 0.286,-0.162 0.27,-0.181C0.253,-0.2 0.236,-0.217 0.219,-0.23L0.219,-0L0.07,-0L0.07,-0.752L0.219,-0.776L0.219,-0.336Z" style="fill:rgb(28,187,134);fill-rule:nonzero;"/>
        </g>
        <g transform="matrix(30.1385,0,0,30.1385,187.131,88.994)">
            <path d="M0.544,-0C0.537,-0.024 0.529,-0.049 0.52,-0.074C0.51,-0.099 0.502,-0.125 0.493,-0.15L0.223,-0.15C0.214,-0.125 0.206,-0.099 0.197,-0.074C0.188,-0.049 0.179,-0.024 0.172,-0L0.01,-0C0.036,-0.075 0.061,-0.144 0.084,-0.207C0.107,-0.27 0.13,-0.33 0.153,-0.386C0.175,-0.442 0.197,-0.495 0.219,-0.546C0.24,-0.596 0.263,-0.645 0.286,-0.693L0.435,-0.693C0.458,-0.645 0.48,-0.596 0.502,-0.546C0.524,-0.495 0.546,-0.442 0.569,-0.386C0.591,-0.33 0.614,-0.27 0.637,-0.207C0.66,-0.144 0.685,-0.075 0.711,-0L0.544,-0ZM0.357,-0.536C0.354,-0.526 0.349,-0.512 0.342,-0.495C0.335,-0.478 0.328,-0.458 0.319,-0.435C0.31,-0.412 0.301,-0.387 0.291,-0.36C0.28,-0.333 0.27,-0.304 0.259,-0.274L0.456,-0.274C0.445,-0.304 0.435,-0.333 0.425,-0.36C0.415,-0.387 0.406,-0.412 0.397,-0.435C0.388,-0.458 0.38,-0.478 0.373,-0.495C0.366,-0.512 0.361,-0.526 0.357,-0.536Z" style="fill:rgb(28,187,134);fill-rule:nonzero;"/>
        </g>
        <g transform="matrix(30.1385,0,0,30.1385,208.861,88.994)">
            <path d="M0.07,-0.508C0.095,-0.515 0.128,-0.522 0.168,-0.529C0.208,-0.535 0.25,-0.538 0.294,-0.538C0.339,-0.538 0.376,-0.532 0.406,-0.521C0.435,-0.509 0.459,-0.492 0.476,-0.471C0.493,-0.45 0.506,-0.424 0.513,-0.395C0.52,-0.366 0.524,-0.333 0.524,-0.297L0.524,-0L0.375,-0L0.375,-0.279C0.375,-0.327 0.369,-0.361 0.356,-0.381C0.343,-0.401 0.32,-0.411 0.285,-0.411C0.274,-0.411 0.263,-0.411 0.251,-0.41C0.239,-0.409 0.228,-0.407 0.219,-0.406L0.219,-0L0.07,-0L0.07,-0.508Z" style="fill:rgb(28,187,134);fill-rule:nonzero;"/>
        </g>
        <g transform="matrix(30.1385,0,0,30.1385,226.612,88.994)">
            <path d="M0.271,-0.104C0.286,-0.104 0.3,-0.104 0.313,-0.105C0.326,-0.106 0.337,-0.107 0.345,-0.108L0.345,-0.221C0.339,-0.222 0.33,-0.224 0.318,-0.225C0.306,-0.226 0.295,-0.227 0.285,-0.227C0.271,-0.227 0.258,-0.226 0.246,-0.225C0.233,-0.223 0.222,-0.22 0.213,-0.215C0.204,-0.21 0.196,-0.204 0.191,-0.196C0.186,-0.188 0.183,-0.178 0.183,-0.166C0.183,-0.143 0.191,-0.127 0.207,-0.118C0.222,-0.109 0.244,-0.104 0.271,-0.104ZM0.259,-0.54C0.303,-0.54 0.34,-0.535 0.369,-0.525C0.398,-0.515 0.422,-0.501 0.44,-0.482C0.457,-0.463 0.47,-0.441 0.477,-0.414C0.484,-0.387 0.488,-0.358 0.488,-0.325L0.488,-0.015C0.467,-0.01 0.437,-0.005 0.399,0.002C0.361,0.008 0.315,0.011 0.261,0.011C0.227,0.011 0.196,0.008 0.169,0.002C0.141,-0.004 0.117,-0.014 0.097,-0.028C0.077,-0.041 0.062,-0.059 0.051,-0.081C0.04,-0.103 0.035,-0.13 0.035,-0.162C0.035,-0.193 0.041,-0.219 0.054,-0.24C0.066,-0.261 0.082,-0.278 0.103,-0.291C0.124,-0.304 0.147,-0.313 0.174,-0.319C0.201,-0.324 0.228,-0.327 0.257,-0.327C0.276,-0.327 0.294,-0.326 0.309,-0.325C0.324,-0.323 0.336,-0.321 0.345,-0.318L0.345,-0.332C0.345,-0.357 0.337,-0.378 0.322,-0.393C0.307,-0.408 0.28,-0.416 0.242,-0.416C0.217,-0.416 0.192,-0.414 0.167,-0.411C0.142,-0.407 0.121,-0.402 0.103,-0.395L0.084,-0.515C0.093,-0.518 0.103,-0.521 0.117,-0.524C0.13,-0.527 0.144,-0.529 0.159,-0.532C0.174,-0.534 0.191,-0.536 0.208,-0.538C0.225,-0.539 0.242,-0.54 0.259,-0.54Z" style="fill:rgb(28,187,134);fill-rule:nonzero;"/>
        </g>
        <g transform="matrix(30.1385,0,0,30.1385,243.279,88.994)">
            <path d="M0.28,0.01C0.237,0.009 0.202,0.005 0.175,-0.004C0.148,-0.013 0.126,-0.025 0.111,-0.041C0.095,-0.056 0.084,-0.075 0.079,-0.098C0.073,-0.12 0.07,-0.145 0.07,-0.173L0.07,-0.752L0.219,-0.776L0.219,-0.203C0.219,-0.19 0.22,-0.178 0.222,-0.167C0.224,-0.156 0.228,-0.147 0.234,-0.14C0.239,-0.133 0.247,-0.127 0.258,-0.122C0.269,-0.117 0.283,-0.114 0.301,-0.113L0.28,0.01Z" style="fill:rgb(28,187,134);fill-rule:nonzero;"/>
        </g>
        <g transform="matrix(30.1385,0,0,30.1385,252.471,88.994)">
            <path d="M0.537,-0.526C0.507,-0.425 0.476,-0.33 0.443,-0.241C0.41,-0.152 0.375,-0.066 0.336,0.017C0.322,0.047 0.308,0.073 0.294,0.094C0.28,0.115 0.265,0.132 0.248,0.146C0.231,0.159 0.213,0.169 0.192,0.176C0.171,0.182 0.146,0.185 0.118,0.185C0.095,0.185 0.073,0.183 0.054,0.179C0.034,0.174 0.018,0.169 0.005,0.164L0.031,0.045C0.046,0.05 0.06,0.054 0.072,0.056C0.084,0.058 0.097,0.059 0.11,0.059C0.137,0.059 0.157,0.052 0.172,0.038C0.186,0.023 0.198,0.003 0.208,-0.022C0.174,-0.089 0.14,-0.164 0.106,-0.247C0.072,-0.329 0.04,-0.423 0.01,-0.526L0.168,-0.526C0.175,-0.5 0.183,-0.472 0.192,-0.442C0.201,-0.411 0.21,-0.381 0.22,-0.35C0.23,-0.319 0.24,-0.288 0.251,-0.259C0.261,-0.23 0.271,-0.203 0.28,-0.179C0.289,-0.203 0.298,-0.23 0.307,-0.259C0.316,-0.288 0.326,-0.319 0.335,-0.35C0.343,-0.381 0.352,-0.411 0.361,-0.442C0.369,-0.472 0.376,-0.5 0.383,-0.526L0.537,-0.526Z" style="fill:rgb(28,187,134);fill-rule:nonzero;"/>
        </g>
        <g transform="matrix(30.1385,0,0,30.1385,268.957,88.994)">
            <path d="M0.065,-0.657L0.214,-0.681L0.214,-0.526L0.393,-0.526L0.393,-0.402L0.214,-0.402L0.214,-0.217C0.214,-0.186 0.22,-0.161 0.231,-0.142C0.242,-0.123 0.264,-0.114 0.297,-0.114C0.313,-0.114 0.33,-0.116 0.347,-0.119C0.364,-0.122 0.379,-0.126 0.393,-0.131L0.414,-0.015C0.396,-0.008 0.376,-0.001 0.354,0.004C0.332,0.009 0.305,0.012 0.273,0.012C0.232,0.012 0.199,0.007 0.172,-0.005C0.145,-0.016 0.124,-0.031 0.108,-0.051C0.092,-0.07 0.081,-0.094 0.075,-0.122C0.068,-0.15 0.065,-0.181 0.065,-0.215L0.065,-0.657Z" style="fill:rgb(28,187,134);fill-rule:nonzero;"/>
        </g>
        <g transform="matrix(30.1385,0,0,30.1385,282.338,88.994)">
            <path d="M0.219,-0L0.07,-0L0.07,-0.526L0.219,-0.526L0.219,-0ZM0.233,-0.678C0.233,-0.651 0.224,-0.629 0.207,-0.614C0.189,-0.598 0.168,-0.59 0.144,-0.59C0.12,-0.59 0.099,-0.598 0.082,-0.614C0.064,-0.629 0.055,-0.651 0.055,-0.678C0.055,-0.705 0.064,-0.727 0.082,-0.743C0.099,-0.758 0.12,-0.766 0.144,-0.766C0.168,-0.766 0.189,-0.758 0.207,-0.743C0.224,-0.727 0.233,-0.705 0.233,-0.678Z" style="fill:rgb(28,187,134);fill-rule:nonzero;"/>
        </g>
        <g transform="matrix(30.1385,0,0,30.1385,291.048,88.994)">
            <path d="M0.045,-0.263C0.045,-0.301 0.051,-0.337 0.064,-0.371C0.076,-0.404 0.094,-0.434 0.117,-0.459C0.14,-0.484 0.169,-0.503 0.202,-0.518C0.235,-0.533 0.273,-0.54 0.316,-0.54C0.344,-0.54 0.37,-0.538 0.393,-0.533C0.416,-0.528 0.439,-0.52 0.461,-0.511L0.43,-0.392C0.416,-0.397 0.401,-0.402 0.384,-0.406C0.367,-0.41 0.349,-0.412 0.328,-0.412C0.284,-0.412 0.251,-0.398 0.23,-0.371C0.208,-0.344 0.197,-0.308 0.197,-0.263C0.197,-0.216 0.207,-0.179 0.228,-0.153C0.248,-0.127 0.283,-0.114 0.334,-0.114C0.352,-0.114 0.371,-0.116 0.392,-0.119C0.413,-0.122 0.432,-0.128 0.449,-0.135L0.47,-0.013C0.453,-0.006 0.431,0.001 0.405,0.006C0.379,0.011 0.35,0.014 0.319,0.014C0.271,0.014 0.23,0.007 0.195,-0.008C0.16,-0.022 0.132,-0.041 0.11,-0.066C0.087,-0.091 0.071,-0.12 0.061,-0.154C0.05,-0.187 0.045,-0.224 0.045,-0.263Z" style="fill:rgb(28,187,134);fill-rule:nonzero;"/>
        </g>
        <g transform="matrix(30.1385,0,0,30.1385,306.118,88.994)">
            <path d="M0.221,-0.107C0.248,-0.107 0.268,-0.11 0.279,-0.115C0.29,-0.12 0.296,-0.131 0.296,-0.146C0.296,-0.158 0.289,-0.169 0.274,-0.178C0.259,-0.187 0.237,-0.197 0.207,-0.208C0.184,-0.217 0.163,-0.226 0.144,-0.235C0.125,-0.244 0.108,-0.256 0.095,-0.269C0.082,-0.282 0.071,-0.297 0.064,-0.315C0.057,-0.333 0.053,-0.355 0.053,-0.38C0.053,-0.429 0.071,-0.468 0.108,-0.497C0.145,-0.526 0.195,-0.54 0.259,-0.54C0.291,-0.54 0.322,-0.537 0.351,-0.532C0.38,-0.526 0.404,-0.52 0.421,-0.513L0.395,-0.397C0.378,-0.403 0.359,-0.408 0.339,-0.413C0.318,-0.418 0.295,-0.42 0.27,-0.42C0.223,-0.42 0.2,-0.407 0.2,-0.381C0.2,-0.375 0.201,-0.37 0.203,-0.365C0.205,-0.36 0.209,-0.356 0.215,-0.352C0.221,-0.347 0.229,-0.343 0.24,-0.338C0.25,-0.333 0.263,-0.327 0.279,-0.321C0.312,-0.309 0.339,-0.297 0.36,-0.286C0.381,-0.274 0.398,-0.261 0.411,-0.248C0.423,-0.234 0.432,-0.219 0.437,-0.202C0.442,-0.185 0.444,-0.166 0.444,-0.144C0.444,-0.092 0.425,-0.053 0.386,-0.026C0.347,0.001 0.291,0.014 0.22,0.014C0.173,0.014 0.134,0.01 0.104,0.002C0.073,-0.006 0.051,-0.013 0.039,-0.018L0.064,-0.139C0.089,-0.129 0.115,-0.121 0.142,-0.116C0.169,-0.11 0.195,-0.107 0.221,-0.107Z" style="fill:rgb(28,187,134);fill-rule:nonzero;"/>
        </g>
    </g>
    <g transform="matrix(0.197266,0,0,0.197266,50.5,50.5)">
        <g transform="matrix(1,0,0,1,-256,-256)">
            <path d="M512,400L512,432C512,440.777 504.777,448 496,448L32,448C14.445,448 0,433.555 0,416L0,80C-0,71.223 7.223,64 16,64L48,64C56.777,64 64,71.223 64,80L64,384L496,384C504.777,384 512,391.223 512,400Z" style="fill:rgb(9,25,38);fill-rule:nonzero;"/>
            <path d="M480,112L480,230.05C480,251.43 454.15,262.14 439,247.05L406.6,214.65L310.6,310.65C298.187,323.06 277.763,323.06 265.35,310.65L192,237.25L145.94,283.32C142.94,286.32 138.867,288.008 134.625,288.008C130.383,288.008 126.31,286.32 123.31,283.32L100.69,260.7C97.69,257.7 96.002,253.627 96.002,249.385C96.002,245.143 97.69,241.07 100.69,238.07L169.38,169.38C181.793,156.97 202.217,156.97 214.63,169.38L288,242.75L361.37,169.37L329,137C313.88,121.88 324.59,96 346,96L464,96C472.777,96 480,103.223 480,112Z" style="fill:rgb(28,187,134);fill-rule:nonzero;"/>
        </g>
    </g>
</svg>
